<?xml version="1.0" standalone="no"?>
<!DOCTYPE svg PUBLIC "-//W3C//DTD SVG 20010904//EN"
 "http://www.w3.org/TR/2001/REC-SVG-20010904/DTD/svg10.dtd">
<svg version="1.0" xmlns="http://www.w3.org/2000/svg"
 width="512.000000pt" height="512.000000pt" viewBox="0 0 512.000000 512.000000"
 preserveAspectRatio="xMidYMid meet">
<metadata>
Created by potrace 1.11, written by Peter Selinger 2001-2013
</metadata>
<g transform="translate(0.000000,512.000000) scale(0.100000,-0.100000)"
fill="#000000" stroke="none">
<path d="M2485 5056 c-38 -24 -90 -54 -115 -68 -46 -26 -416 -239 -480 -276
-19 -12 -62 -36 -95 -55 -33 -18 -276 -158 -540 -311 -264 -153 -499 -289
-522 -302 -23 -13 -92 -53 -153 -89 -61 -36 -113 -65 -115 -65 -2 0 -26 -14
-54 -31 l-50 -32 4 -91 c3 -50 7 -131 10 -181 5 -92 11 -201 20 -380 3 -55 7
-136 10 -180 6 -98 13 -235 20 -380 6 -106 10 -188 20 -360 2 -44 7 -132 10
-195 6 -126 14 -266 20 -375 2 -38 7 -122 10 -185 6 -100 11 -188 14 -212 1
-4 18 -17 38 -28 21 -11 65 -38 98 -60 33 -21 71 -45 85 -53 27 -14 402 -245
460 -282 58 -38 1375 -846 1381 -848 3 -1 179 106 392 238 413 256 537 333
605 374 23 14 173 107 332 206 160 99 384 238 498 308 114 70 212 133 219 140
6 7 14 68 18 147 4 74 8 158 10 185 2 28 6 100 10 160 3 61 8 142 10 180 2 39
7 115 10 170 6 96 9 148 19 320 3 44 8 127 11 185 3 58 8 134 10 170 3 36 7
115 10 175 3 61 8 135 10 165 2 30 7 107 10 170 3 63 8 135 10 160 2 25 7 101
11 170 3 69 7 139 9 156 2 21 -3 34 -16 43 -11 6 -223 129 -472 272 -248 143
-483 279 -522 302 -38 23 -86 50 -105 60 -19 11 -55 31 -80 47 -87 53 -987
569 -1001 574 -8 2 -45 -15 -84 -38z"/>
</g>
</svg>
